<svg id="visual" viewBox="0 0 900 600" width="900" height="600" xmlns="http://www.w3.org/2000/svg"
    xmlns:xlink="http://www.w3.org/1999/xlink" version="1.1">
    <rect x="0" y="0" width="900" height="600" fill="#f2f2f2"></rect>
    <path
        d="M0 544L21.5 528.8C43 513.7 86 483.3 128.8 476.7C171.7 470 214.3 487 257.2 493C300 499 343 494 385.8 500.8C428.7 507.7 471.3 526.3 514.2 534.7C557 543 600 541 642.8 541C685.7 541 728.3 543 771.2 532.3C814 521.7 857 498.3 878.5 486.7L900 475L900 0L878.5 0C857 0 814 0 771.2 0C728.3 0 685.7 0 642.8 0C600 0 557 0 514.2 0C471.3 0 428.7 0 385.8 0C343 0 300 0 257.2 0C214.3 0 171.7 0 128.8 0C86 0 43 0 21.5 0L0 0Z"
        fill="#8b541b"></path>
    <path
        d="M0 447L21.5 440.3C43 433.7 86 420.3 128.8 420.3C171.7 420.3 214.3 433.7 257.2 432.5C300 431.3 343 415.7 385.8 404C428.7 392.3 471.3 384.7 514.2 385.7C557 386.7 600 396.3 642.8 408.2C685.7 420 728.3 434 771.2 425.2C814 416.3 857 384.7 878.5 368.8L900 353L900 0L878.5 0C857 0 814 0 771.2 0C728.3 0 685.7 0 642.8 0C600 0 557 0 514.2 0C471.3 0 428.7 0 385.8 0C343 0 300 0 257.2 0C214.3 0 171.7 0 128.8 0C86 0 43 0 21.5 0L0 0Z"
        fill="#975b1d"></path>
    <path
        d="M0 319L21.5 323.7C43 328.3 86 337.7 128.8 336.7C171.7 335.7 214.3 324.3 257.2 309.3C300 294.3 343 275.7 385.8 269.8C428.7 264 471.3 271 514.2 278C557 285 600 292 642.8 293.8C685.7 295.7 728.3 292.3 771.2 284.2C814 276 857 263 878.5 256.5L900 250L900 0L878.5 0C857 0 814 0 771.2 0C728.3 0 685.7 0 642.8 0C600 0 557 0 514.2 0C471.3 0 428.7 0 385.8 0C343 0 300 0 257.2 0C214.3 0 171.7 0 128.8 0C86 0 43 0 21.5 0L0 0Z"
        fill="#a4631f"></path>
    <path
        d="M0 162L21.5 175.2C43 188.3 86 214.7 128.8 214C171.7 213.3 214.3 185.7 257.2 181.8C300 178 343 198 385.8 211C428.7 224 471.3 230 514.2 226.7C557 223.3 600 210.7 642.8 208.3C685.7 206 728.3 214 771.2 217C814 220 857 218 878.5 217L900 216L900 0L878.5 0C857 0 814 0 771.2 0C728.3 0 685.7 0 642.8 0C600 0 557 0 514.2 0C471.3 0 428.7 0 385.8 0C343 0 300 0 257.2 0C214.3 0 171.7 0 128.8 0C86 0 43 0 21.5 0L0 0Z"
        fill="#b16b21"></path>
    <path
        d="M0 109L21.5 114.8C43 120.7 86 132.3 128.8 126.5C171.7 120.7 214.3 97.3 257.2 88.5C300 79.7 343 85.3 385.8 89.7C428.7 94 471.3 97 514.2 106.3C557 115.7 600 131.3 642.8 129.2C685.7 127 728.3 107 771.2 93.8C814 80.7 857 74.3 878.5 71.2L900 68L900 0L878.5 0C857 0 814 0 771.2 0C728.3 0 685.7 0 642.8 0C600 0 557 0 514.2 0C471.3 0 428.7 0 385.8 0C343 0 300 0 257.2 0C214.3 0 171.7 0 128.8 0C86 0 43 0 21.5 0L0 0Z"
        fill="#be7322"></path>
</svg>