<svg id="visual" viewBox="0 0 900 600" width="900" height="600" xmlns="http://www.w3.org/2000/svg"
    xmlns:xlink="http://www.w3.org/1999/xlink" version="1.1">
    <path
        d="M0 181L18.8 173C37.7 165 75.3 149 112.8 152C150.3 155 187.7 177 225.2 186C262.7 195 300.3 191 337.8 186C375.3 181 412.7 175 450.2 166C487.7 157 525.3 145 562.8 138C600.3 131 637.7 129 675.2 137C712.7 145 750.3 163 787.8 176C825.3 189 862.7 197 881.3 201L900 205L900 0L881.3 0C862.7 0 825.3 0 787.8 0C750.3 0 712.7 0 675.2 0C637.7 0 600.3 0 562.8 0C525.3 0 487.7 0 450.2 0C412.7 0 375.3 0 337.8 0C300.3 0 262.7 0 225.2 0C187.7 0 150.3 0 112.8 0C75.3 0 37.7 0 18.8 0L0 0Z"
        fill="#6c4116"></path>
    <path
        d="M0 259L18.8 250C37.7 241 75.3 223 112.8 227C150.3 231 187.7 257 225.2 267C262.7 277 300.3 271 337.8 267C375.3 263 412.7 261 450.2 254C487.7 247 525.3 235 562.8 228C600.3 221 637.7 219 675.2 226C712.7 233 750.3 249 787.8 259C825.3 269 862.7 273 881.3 275L900 277L900 203L881.3 199C862.7 195 825.3 187 787.8 174C750.3 161 712.7 143 675.2 135C637.7 127 600.3 129 562.8 136C525.3 143 487.7 155 450.2 164C412.7 173 375.3 179 337.8 184C300.3 189 262.7 193 225.2 184C187.7 175 150.3 153 112.8 150C75.3 147 37.7 163 18.8 171L0 179Z"
        fill="#7f4d18"></path>
    <path
        d="M0 355L18.8 352C37.7 349 75.3 343 112.8 353C150.3 363 187.7 389 225.2 392C262.7 395 300.3 375 337.8 371C375.3 367 412.7 379 450.2 370C487.7 361 525.3 331 562.8 321C600.3 311 637.7 321 675.2 328C712.7 335 750.3 339 787.8 352C825.3 365 862.7 387 881.3 398L900 409L900 275L881.3 273C862.7 271 825.3 267 787.8 257C750.3 247 712.7 231 675.2 224C637.7 217 600.3 219 562.8 226C525.3 233 487.7 245 450.2 252C412.7 259 375.3 261 337.8 265C300.3 269 262.7 275 225.2 265C187.7 255 150.3 229 112.8 225C75.3 221 37.7 239 18.8 248L0 257Z"
        fill="#93591a"></path>
    <path
        d="M0 511L18.8 510C37.7 509 75.3 507 112.8 510C150.3 513 187.7 521 225.2 521C262.7 521 300.3 513 337.8 515C375.3 517 412.7 529 450.2 532C487.7 535 525.3 529 562.8 530C600.3 531 637.7 539 675.2 541C712.7 543 750.3 539 787.8 534C825.3 529 862.7 523 881.3 520L900 517L900 407L881.3 396C862.7 385 825.3 363 787.8 350C750.3 337 712.7 333 675.2 326C637.7 319 600.3 309 562.8 319C525.3 329 487.7 359 450.2 368C412.7 377 375.3 365 337.8 369C300.3 373 262.7 393 225.2 390C187.7 387 150.3 361 112.8 351C75.3 341 37.7 347 18.8 350L0 353Z"
        fill="#a36b31"></path>
    <path
        d="M0 601L18.8 601C37.7 601 75.3 601 112.8 601C150.3 601 187.7 601 225.2 601C262.7 601 300.3 601 337.8 601C375.3 601 412.7 601 450.2 601C487.7 601 525.3 601 562.8 601C600.3 601 637.7 601 675.2 601C712.7 601 750.3 601 787.8 601C825.3 601 862.7 601 881.3 601L900 601L900 515L881.3 518C862.7 521 825.3 527 787.8 532C750.3 537 712.7 541 675.2 539C637.7 537 600.3 529 562.8 528C525.3 527 487.7 533 450.2 530C412.7 527 375.3 515 337.8 513C300.3 511 262.7 519 225.2 519C187.7 519 150.3 511 112.8 508C75.3 505 37.7 507 18.8 508L0 509Z"
        fill="#b27e47"></path>
</svg>