<svg id="visual" viewBox="0 0 900 600" width="900" height="600" xmlns="http://www.w3.org/2000/svg" xmlns:xlink="http://www.w3.org/1999/xlink" version="1.1"><path d="M0 97L18.8 91C37.7 85 75.3 73 112.8 67C150.3 61 187.7 61 225.2 61C262.7 61 300.3 61 337.8 65C375.3 69 412.7 77 450.2 80C487.7 83 525.3 81 562.8 81C600.3 81 637.7 83 675.2 86C712.7 89 750.3 93 787.8 93C825.3 93 862.7 89 881.3 87L900 85L900 0L881.3 0C862.7 0 825.3 0 787.8 0C750.3 0 712.7 0 675.2 0C637.7 0 600.3 0 562.8 0C525.3 0 487.7 0 450.2 0C412.7 0 375.3 0 337.8 0C300.3 0 262.7 0 225.2 0C187.7 0 150.3 0 112.8 0C75.3 0 37.7 0 18.8 0L0 0Z" fill="#6c4116"></path><path d="M0 277L18.8 267C37.7 257 75.3 237 112.8 228C150.3 219 187.7 221 225.2 228C262.7 235 300.3 247 337.8 252C375.3 257 412.7 255 450.2 258C487.7 261 525.3 269 562.8 265C600.3 261 637.7 245 675.2 247C712.7 249 750.3 269 787.8 272C825.3 275 862.7 261 881.3 254L900 247L900 83L881.3 85C862.7 87 825.3 91 787.8 91C750.3 91 712.7 87 675.2 84C637.7 81 600.3 79 562.8 79C525.3 79 487.7 81 450.2 78C412.7 75 375.3 67 337.8 63C300.3 59 262.7 59 225.2 59C187.7 59 150.3 59 112.8 65C75.3 71 37.7 83 18.8 89L0 95Z" fill="#7f4d18"></path><path d="M0 367L18.8 356C37.7 345 75.3 323 112.8 312C150.3 301 187.7 301 225.2 303C262.7 305 300.3 309 337.8 309C375.3 309 412.7 305 450.2 314C487.7 323 525.3 345 562.8 341C600.3 337 637.7 307 675.2 309C712.7 311 750.3 345 787.8 351C825.3 357 862.7 335 881.3 324L900 313L900 245L881.3 252C862.7 259 825.3 273 787.8 270C750.3 267 712.7 247 675.2 245C637.7 243 600.3 259 562.8 263C525.3 267 487.7 259 450.2 256C412.7 253 375.3 255 337.8 250C300.3 245 262.7 233 225.2 226C187.7 219 150.3 217 112.8 226C75.3 235 37.7 255 18.8 265L0 275Z" fill="#93591a"></path><path d="M0 493L18.8 496C37.7 499 75.3 505 112.8 509C150.3 513 187.7 515 225.2 505C262.7 495 300.3 473 337.8 474C375.3 475 412.7 499 450.2 510C487.7 521 525.3 519 562.8 519C600.3 519 637.7 521 675.2 522C712.7 523 750.3 523 787.8 513C825.3 503 862.7 483 881.3 473L900 463L900 311L881.3 322C862.7 333 825.3 355 787.8 349C750.3 343 712.7 309 675.2 307C637.7 305 600.3 335 562.8 339C525.3 343 487.7 321 450.2 312C412.7 303 375.3 307 337.8 307C300.3 307 262.7 303 225.2 301C187.7 299 150.3 299 112.8 310C75.3 321 37.7 343 18.8 354L0 365Z" fill="#a36b31"></path><path d="M0 601L18.8 601C37.7 601 75.3 601 112.8 601C150.3 601 187.7 601 225.2 601C262.7 601 300.3 601 337.8 601C375.3 601 412.7 601 450.2 601C487.7 601 525.3 601 562.8 601C600.3 601 637.7 601 675.2 601C712.7 601 750.3 601 787.8 601C825.3 601 862.7 601 881.3 601L900 601L900 461L881.3 471C862.7 481 825.3 501 787.8 511C750.3 521 712.7 521 675.2 520C637.7 519 600.3 517 562.8 517C525.3 517 487.7 519 450.2 508C412.7 497 375.3 473 337.8 472C300.3 471 262.7 493 225.2 503C187.7 513 150.3 511 112.8 507C75.3 503 37.7 497 18.8 494L0 491Z" fill="#b27e47"></path></svg>