<svg id="visual" viewBox="0 0 900 600" width="900" height="600" xmlns="http://www.w3.org/2000/svg"
  xmlns:xlink="http://www.w3.org/1999/xlink" version="1.1">
  <path id="g1wave1"
    d="M0 73L18.8 71C37.7 69 75.3 65 112.8 61C150.3 57 187.7 53 225.2 51C262.7 49 300.3 49 337.8 50C375.3 51 412.7 53 450.2 57C487.7 61 525.3 67 562.8 73C600.3 79 637.7 85 675.2 81C712.7 77 750.3 63 787.8 61C825.3 59 862.7 69 881.3 74L900 79L900 0L881.3 0C862.7 0 825.3 0 787.8 0C750.3 0 712.7 0 675.2 0C637.7 0 600.3 0 562.8 0C525.3 0 487.7 0 450.2 0C412.7 0 375.3 0 337.8 0C300.3 0 262.7 0 225.2 0C187.7 0 150.3 0 112.8 0C75.3 0 37.7 0 18.8 0L0 0Z"
    fill="#6c4116"></path>
  <path id="g1wave2"
    d="M0 139L18.8 137C37.7 135 75.3 131 112.8 127C150.3 123 187.7 119 225.2 124C262.7 129 300.3 143 337.8 151C375.3 159 412.7 161 450.2 164C487.7 167 525.3 171 562.8 176C600.3 181 637.7 187 675.2 184C712.7 181 750.3 169 787.8 161C825.3 153 862.7 149 881.3 147L900 145L900 77L881.3 72C862.7 67 825.3 57 787.8 59C750.3 61 712.7 75 675.2 79C637.7 83 600.3 77 562.8 71C525.3 65 487.7 59 450.2 55C412.7 51 375.3 49 337.8 48C300.3 47 262.7 47 225.2 49C187.7 51 150.3 55 112.8 59C75.3 63 37.7 67 18.8 69L0 71Z"
    fill="#7f4d18"></path>
  <path id="g1wave3"
    d="M0 313L18.8 316C37.7 319 75.3 325 112.8 319C150.3 313 187.7 295 225.2 301C262.7 307 300.3 337 337.8 340C375.3 343 412.7 319 450.2 321C487.7 323 525.3 351 562.8 371C600.3 391 637.7 403 675.2 386C712.7 369 750.3 323 787.8 306C825.3 289 862.7 301 881.3 307L900 313L900 143L881.3 145C862.7 147 825.3 151 787.8 159C750.3 167 712.7 179 675.2 182C637.7 185 600.3 179 562.8 174C525.3 169 487.7 165 450.2 162C412.7 159 375.3 157 337.8 149C300.3 141 262.7 127 225.2 122C187.7 117 150.3 121 112.8 125C75.3 129 37.7 133 18.8 135L0 137Z"
    fill="#93591a"></path>
  <path id="g1wave4"
    d="M0 397L18.8 408C37.7 419 75.3 441 112.8 435C150.3 429 187.7 395 225.2 396C262.7 397 300.3 433 337.8 439C375.3 445 412.7 421 450.2 425C487.7 429 525.3 461 562.8 476C600.3 491 637.7 489 675.2 473C712.7 457 750.3 427 787.8 417C825.3 407 862.7 417 881.3 422L900 427L900 311L881.3 305C862.7 299 825.3 287 787.8 304C750.3 321 712.7 367 675.2 384C637.7 401 600.3 389 562.8 369C525.3 349 487.7 321 450.2 319C412.7 317 375.3 341 337.8 338C300.3 335 262.7 305 225.2 299C187.7 293 150.3 311 112.8 317C75.3 323 37.7 317 18.8 314L0 311Z"
    fill="#a36b31"></path>
  <path id="g1wave5"
    d="M0 601L18.8 601C37.7 601 75.3 601 112.8 601C150.3 601 187.7 601 225.2 601C262.7 601 300.3 601 337.8 601C375.3 601 412.7 601 450.2 601C487.7 601 525.3 601 562.8 601C600.3 601 637.7 601 675.2 601C712.7 601 750.3 601 787.8 601C825.3 601 862.7 601 881.3 601L900 601L900 425L881.3 420C862.7 415 825.3 405 787.8 415C750.3 425 712.7 455 675.2 471C637.7 487 600.3 489 562.8 474C525.3 459 487.7 427 450.2 423C412.7 419 375.3 443 337.8 437C300.3 431 262.7 395 225.2 394C187.7 393 150.3 427 112.8 433C75.3 439 37.7 417 18.8 406L0 395Z"
    fill="#b27e47"></path>
</svg>