<svg id="visual" viewBox="0 0 900 600" width="900" height="600" xmlns="http://www.w3.org/2000/svg"
    xmlns:xlink="http://www.w3.org/1999/xlink" version="1.1">
    <path
        d="M0 199L18.8 201C37.7 203 75.3 207 112.8 207C150.3 207 187.7 203 225.2 202C262.7 201 300.3 203 337.8 204C375.3 205 412.7 205 450.2 193C487.7 181 525.3 157 562.8 158C600.3 159 637.7 185 675.2 198C712.7 211 750.3 211 787.8 207C825.3 203 862.7 195 881.3 191L900 187L900 0L881.3 0C862.7 0 825.3 0 787.8 0C750.3 0 712.7 0 675.2 0C637.7 0 600.3 0 562.8 0C525.3 0 487.7 0 450.2 0C412.7 0 375.3 0 337.8 0C300.3 0 262.7 0 225.2 0C187.7 0 150.3 0 112.8 0C75.3 0 37.7 0 18.8 0L0 0Z"
        fill="#6c4116"></path>
    <path
        d="M0 319L18.8 319C37.7 319 75.3 319 112.8 314C150.3 309 187.7 299 225.2 296C262.7 293 300.3 297 337.8 300C375.3 303 412.7 305 450.2 295C487.7 285 525.3 263 562.8 265C600.3 267 637.7 293 675.2 307C712.7 321 750.3 323 787.8 315C825.3 307 862.7 289 881.3 280L900 271L900 185L881.3 189C862.7 193 825.3 201 787.8 205C750.3 209 712.7 209 675.2 196C637.7 183 600.3 157 562.8 156C525.3 155 487.7 179 450.2 191C412.7 203 375.3 203 337.8 202C300.3 201 262.7 199 225.2 200C187.7 201 150.3 205 112.8 205C75.3 205 37.7 201 18.8 199L0 197Z"
        fill="#7f4d18"></path>
    <path
        d="M0 403L18.8 403C37.7 403 75.3 403 112.8 398C150.3 393 187.7 383 225.2 381C262.7 379 300.3 385 337.8 386C375.3 387 412.7 383 450.2 372C487.7 361 525.3 343 562.8 342C600.3 341 637.7 357 675.2 366C712.7 375 750.3 377 787.8 371C825.3 365 862.7 351 881.3 344L900 337L900 269L881.3 278C862.7 287 825.3 305 787.8 313C750.3 321 712.7 319 675.2 305C637.7 291 600.3 265 562.8 263C525.3 261 487.7 283 450.2 293C412.7 303 375.3 301 337.8 298C300.3 295 262.7 291 225.2 294C187.7 297 150.3 307 112.8 312C75.3 317 37.7 317 18.8 317L0 317Z"
        fill="#93591a"></path>
    <path
        d="M0 475L18.8 473C37.7 471 75.3 467 112.8 463C150.3 459 187.7 455 225.2 458C262.7 461 300.3 471 337.8 469C375.3 467 412.7 453 450.2 443C487.7 433 525.3 427 562.8 431C600.3 435 637.7 449 675.2 456C712.7 463 750.3 463 787.8 458C825.3 453 862.7 443 881.3 438L900 433L900 335L881.3 342C862.7 349 825.3 363 787.8 369C750.3 375 712.7 373 675.2 364C637.7 355 600.3 339 562.8 340C525.3 341 487.7 359 450.2 370C412.7 381 375.3 385 337.8 384C300.3 383 262.7 377 225.2 379C187.7 381 150.3 391 112.8 396C75.3 401 37.7 401 18.8 401L0 401Z"
        fill="#a36b31"></path>
    <path
        d="M0 601L18.8 601C37.7 601 75.3 601 112.8 601C150.3 601 187.7 601 225.2 601C262.7 601 300.3 601 337.8 601C375.3 601 412.7 601 450.2 601C487.7 601 525.3 601 562.8 601C600.3 601 637.7 601 675.2 601C712.7 601 750.3 601 787.8 601C825.3 601 862.7 601 881.3 601L900 601L900 431L881.3 436C862.7 441 825.3 451 787.8 456C750.3 461 712.7 461 675.2 454C637.7 447 600.3 433 562.8 429C525.3 425 487.7 431 450.2 441C412.7 451 375.3 465 337.8 467C300.3 469 262.7 459 225.2 456C187.7 453 150.3 457 112.8 461C75.3 465 37.7 469 18.8 471L0 473Z"
        fill="#b27e47"></path>
</svg>