<svg id="visual" viewBox="0 0 900 600" width="900" height="600" xmlns="http://www.w3.org/2000/svg"
  xmlns:xlink="http://www.w3.org/1999/xlink" version="1.1">
  <path id="g2wave1"
    d="M0 193L18.8 184C37.7 175 75.3 157 112.8 161C150.3 165 187.7 191 225.2 205C262.7 219 300.3 221 337.8 210C375.3 199 412.7 175 450.2 164C487.7 153 525.3 155 562.8 154C600.3 153 637.7 149 675.2 147C712.7 145 750.3 145 787.8 143C825.3 141 862.7 137 881.3 135L900 133L900 0L881.3 0C862.7 0 825.3 0 787.8 0C750.3 0 712.7 0 675.2 0C637.7 0 600.3 0 562.8 0C525.3 0 487.7 0 450.2 0C412.7 0 375.3 0 337.8 0C300.3 0 262.7 0 225.2 0C187.7 0 150.3 0 112.8 0C75.3 0 37.7 0 18.8 0L0 0Z"
    fill="#6c4116"></path>
  <path id="g2wave2"
    d="M0 295L18.8 284C37.7 273 75.3 251 112.8 254C150.3 257 187.7 285 225.2 296C262.7 307 300.3 301 337.8 285C375.3 269 412.7 243 450.2 238C487.7 233 525.3 249 562.8 249C600.3 249 637.7 233 675.2 229C712.7 225 750.3 233 787.8 234C825.3 235 862.7 229 881.3 226L900 223L900 131L881.3 133C862.7 135 825.3 139 787.8 141C750.3 143 712.7 143 675.2 145C637.7 147 600.3 151 562.8 152C525.3 153 487.7 151 450.2 162C412.7 173 375.3 197 337.8 208C300.3 219 262.7 217 225.2 203C187.7 189 150.3 163 112.8 159C75.3 155 37.7 173 18.8 182L0 191Z"
    fill="#7f4d18"></path>
  <path id="g2wave3"
    d="M0 385L18.8 380C37.7 375 75.3 365 112.8 365C150.3 365 187.7 375 225.2 379C262.7 383 300.3 381 337.8 373C375.3 365 412.7 351 450.2 354C487.7 357 525.3 377 562.8 372C600.3 367 637.7 337 675.2 324C712.7 311 750.3 315 787.8 320C825.3 325 862.7 331 881.3 334L900 337L900 221L881.3 224C862.7 227 825.3 233 787.8 232C750.3 231 712.7 223 675.2 227C637.7 231 600.3 247 562.8 247C525.3 247 487.7 231 450.2 236C412.7 241 375.3 267 337.8 283C300.3 299 262.7 305 225.2 294C187.7 283 150.3 255 112.8 252C75.3 249 37.7 271 18.8 282L0 293Z"
    fill="#93591a"></path>
  <path id="g2wave4"
    d="M0 529L18.8 532C37.7 535 75.3 541 112.8 541C150.3 541 187.7 535 225.2 536C262.7 537 300.3 545 337.8 543C375.3 541 412.7 529 450.2 527C487.7 525 525.3 533 562.8 537C600.3 541 637.7 541 675.2 543C712.7 545 750.3 549 787.8 545C825.3 541 862.7 529 881.3 523L900 517L900 335L881.3 332C862.7 329 825.3 323 787.8 318C750.3 313 712.7 309 675.2 322C637.7 335 600.3 365 562.8 370C525.3 375 487.7 355 450.2 352C412.7 349 375.3 363 337.8 371C300.3 379 262.7 381 225.2 377C187.7 373 150.3 363 112.8 363C75.3 363 37.7 373 18.8 378L0 383Z"
    fill="#a36b31"></path>
  <path id="g2wave5"
    d="M0 601L18.8 601C37.7 601 75.3 601 112.8 601C150.3 601 187.7 601 225.2 601C262.7 601 300.3 601 337.8 601C375.3 601 412.7 601 450.2 601C487.7 601 525.3 601 562.8 601C600.3 601 637.7 601 675.2 601C712.7 601 750.3 601 787.8 601C825.3 601 862.7 601 881.3 601L900 601L900 515L881.3 521C862.7 527 825.3 539 787.8 543C750.3 547 712.7 543 675.2 541C637.7 539 600.3 539 562.8 535C525.3 531 487.7 523 450.2 525C412.7 527 375.3 539 337.8 541C300.3 543 262.7 535 225.2 534C187.7 533 150.3 539 112.8 539C75.3 539 37.7 533 18.8 530L0 527Z"
    fill="#b27e47"></path>
</svg>