<svg id="visual" viewBox="0 0 900 600" width="900" height="600" xmlns="http://www.w3.org/2000/svg" xmlns:xlink="http://www.w3.org/1999/xlink" version="1.1"><path d="M0 169L18.8 161C37.7 153 75.3 137 112.8 129C150.3 121 187.7 121 225.2 132C262.7 143 300.3 165 337.8 170C375.3 175 412.7 163 450.2 165C487.7 167 525.3 183 562.8 188C600.3 193 637.7 187 675.2 181C712.7 175 750.3 169 787.8 166C825.3 163 862.7 163 881.3 163L900 163L900 0L881.3 0C862.7 0 825.3 0 787.8 0C750.3 0 712.7 0 675.2 0C637.7 0 600.3 0 562.8 0C525.3 0 487.7 0 450.2 0C412.7 0 375.3 0 337.8 0C300.3 0 262.7 0 225.2 0C187.7 0 150.3 0 112.8 0C75.3 0 37.7 0 18.8 0L0 0Z" fill="#6c4116"></path><path d="M0 247L18.8 238C37.7 229 75.3 211 112.8 201C150.3 191 187.7 189 225.2 196C262.7 203 300.3 219 337.8 225C375.3 231 412.7 227 450.2 233C487.7 239 525.3 255 562.8 259C600.3 263 637.7 255 675.2 246C712.7 237 750.3 227 787.8 226C825.3 225 862.7 233 881.3 237L900 241L900 161L881.3 161C862.7 161 825.3 161 787.8 164C750.3 167 712.7 173 675.2 179C637.7 185 600.3 191 562.8 186C525.3 181 487.7 165 450.2 163C412.7 161 375.3 173 337.8 168C300.3 163 262.7 141 225.2 130C187.7 119 150.3 119 112.8 127C75.3 135 37.7 151 18.8 159L0 167Z" fill="#7f4d18"></path><path d="M0 319L18.8 317C37.7 315 75.3 311 112.8 309C150.3 307 187.7 307 225.2 318C262.7 329 300.3 351 337.8 356C375.3 361 412.7 349 450.2 347C487.7 345 525.3 353 562.8 351C600.3 349 637.7 337 675.2 333C712.7 329 750.3 333 787.8 336C825.3 339 862.7 341 881.3 342L900 343L900 239L881.3 235C862.7 231 825.3 223 787.8 224C750.3 225 712.7 235 675.2 244C637.7 253 600.3 261 562.8 257C525.3 253 487.7 237 450.2 231C412.7 225 375.3 229 337.8 223C300.3 217 262.7 201 225.2 194C187.7 187 150.3 189 112.8 199C75.3 209 37.7 227 18.8 236L0 245Z" fill="#93591a"></path><path d="M0 517L18.8 515C37.7 513 75.3 509 112.8 508C150.3 507 187.7 509 225.2 514C262.7 519 300.3 527 337.8 524C375.3 521 412.7 507 450.2 507C487.7 507 525.3 521 562.8 528C600.3 535 637.7 535 675.2 531C712.7 527 750.3 519 787.8 518C825.3 517 862.7 523 881.3 526L900 529L900 341L881.3 340C862.7 339 825.3 337 787.8 334C750.3 331 712.7 327 675.2 331C637.7 335 600.3 347 562.8 349C525.3 351 487.7 343 450.2 345C412.7 347 375.3 359 337.8 354C300.3 349 262.7 327 225.2 316C187.7 305 150.3 305 112.8 307C75.3 309 37.7 313 18.8 315L0 317Z" fill="#a36b31"></path><path d="M0 601L18.8 601C37.7 601 75.3 601 112.8 601C150.3 601 187.7 601 225.2 601C262.7 601 300.3 601 337.8 601C375.3 601 412.7 601 450.2 601C487.7 601 525.3 601 562.8 601C600.3 601 637.7 601 675.2 601C712.7 601 750.3 601 787.8 601C825.3 601 862.7 601 881.3 601L900 601L900 527L881.3 524C862.7 521 825.3 515 787.8 516C750.3 517 712.7 525 675.2 529C637.7 533 600.3 533 562.8 526C525.3 519 487.7 505 450.2 505C412.7 505 375.3 519 337.8 522C300.3 525 262.7 517 225.2 512C187.7 507 150.3 505 112.8 506C75.3 507 37.7 511 18.8 513L0 515Z" fill="#b27e47"></path></svg>