<svg id="visual" viewBox="0 0 900 600" width="900" height="600" xmlns="http://www.w3.org/2000/svg" xmlns:xlink="http://www.w3.org/1999/xlink" version="1.1"><path d="M0 175L15 171C30 167 60 159 90 168C120 177 150 203 180 201C210 199 240 169 270 158C300 147 330 155 360 170C390 185 420 207 450 209C480 211 510 193 540 178C570 163 600 151 630 148C660 145 690 151 720 162C750 173 780 189 810 203C840 217 870 229 885 235L900 241L900 0L885 0C870 0 840 0 810 0C780 0 750 0 720 0C690 0 660 0 630 0C600 0 570 0 540 0C510 0 480 0 450 0C420 0 390 0 360 0C330 0 300 0 270 0C240 0 210 0 180 0C150 0 120 0 90 0C60 0 30 0 15 0L0 0Z" fill="#8b541b"></path><path d="M0 259L15 256C30 253 60 247 90 258C120 269 150 297 180 294C210 291 240 257 270 242C300 227 330 231 360 245C390 259 420 283 450 290C480 297 510 287 540 278C570 269 600 261 630 258C660 255 690 257 720 263C750 269 780 279 810 293C840 307 870 325 885 334L900 343L900 239L885 233C870 227 840 215 810 201C780 187 750 171 720 160C690 149 660 143 630 146C600 149 570 161 540 176C510 191 480 209 450 207C420 205 390 183 360 168C330 153 300 145 270 156C240 167 210 197 180 199C150 201 120 175 90 166C60 157 30 165 15 169L0 173Z" fill="#a4631f"></path><path d="M0 391L15 392C30 393 60 395 90 404C120 413 150 429 180 428C210 427 240 409 270 400C300 391 330 391 360 397C390 403 420 415 450 415C480 415 510 403 540 401C570 399 600 407 630 416C660 425 690 435 720 441C750 447 780 449 810 450C840 451 870 451 885 451L900 451L900 341L885 332C870 323 840 305 810 291C780 277 750 267 720 261C690 255 660 253 630 256C600 259 570 267 540 276C510 285 480 295 450 288C420 281 390 257 360 243C330 229 300 225 270 240C240 255 210 289 180 292C150 295 120 267 90 256C60 245 30 251 15 254L0 257Z" fill="#be7322"></path><path d="M0 487L15 486C30 485 60 483 90 488C120 493 150 505 180 505C210 505 240 493 270 486C300 479 330 477 360 477C390 477 420 479 450 479C480 479 510 477 540 476C570 475 600 475 630 486C660 497 690 519 720 528C750 537 780 533 810 531C840 529 870 529 885 529L900 529L900 449L885 449C870 449 840 449 810 448C780 447 750 445 720 439C690 433 660 423 630 414C600 405 570 397 540 399C510 401 480 413 450 413C420 413 390 401 360 395C330 389 300 389 270 398C240 407 210 425 180 426C150 427 120 411 90 402C60 393 30 391 15 390L0 389Z" fill="#c8863f"></path><path d="M0 601L15 601C30 601 60 601 90 601C120 601 150 601 180 601C210 601 240 601 270 601C300 601 330 601 360 601C390 601 420 601 450 601C480 601 510 601 540 601C570 601 600 601 630 601C660 601 690 601 720 601C750 601 780 601 810 601C840 601 870 601 885 601L900 601L900 527L885 527C870 527 840 527 810 529C780 531 750 535 720 526C690 517 660 495 630 484C600 473 570 473 540 474C510 475 480 477 450 477C420 477 390 475 360 475C330 475 300 477 270 484C240 491 210 503 180 503C150 503 120 491 90 486C60 481 30 483 15 484L0 485Z" fill="#d2995b"></path></svg>